<svg width="75" height="75" viewBox="0 0 75 75" fill="none" xmlns="http://www.w3.org/2000/svg">
<path d="M38.415 11.295C38.1346 11.2945 37.8576 11.3569 37.6045 11.4777C37.3514 11.5984 37.1286 11.7743 36.9525 11.9925L36.6188 12.24C30.15 10.2375 22.77 11.7075 17.6325 16.6575C15.4811 18.699 13.8806 21.2511 12.9798 24.0768C12.079 26.9025 11.9071 29.9101 12.48 32.82C12.4163 32.8763 12.3538 32.9338 12.2925 32.9925L9.37126 35.805C8.80617 36.3411 8.35614 36.9866 8.04861 37.7023C7.74109 38.4179 7.58249 39.1886 7.58249 39.9675C7.58249 40.7465 7.74109 41.5172 8.04861 42.2328C8.35614 42.9485 8.80617 43.594 9.37126 44.13C10.8638 45.57 12.9338 46.11 14.8575 45.75C15.0938 46.8338 15.645 47.865 16.5188 48.705C17.67 49.815 19.1663 50.3888 20.6738 50.43C20.715 51.8813 21.3113 53.3213 22.4625 54.4313C23.6138 55.5413 25.1138 56.1188 26.6213 56.1563C26.6588 57.6075 27.2588 59.0513 28.41 60.1613C29.5122 61.2073 30.9559 61.8185 32.4741 61.882C33.9922 61.9454 35.4819 61.4567 36.6675 60.5063L38.3063 62.0813C40.7063 64.3951 44.5988 64.3951 46.9988 62.0813C48.1463 60.9788 48.7425 59.5463 48.795 58.0988C50.3364 58.0591 51.8075 57.4452 52.92 56.3775C54.0675 55.2713 54.6638 53.8388 54.7088 52.3913C56.2328 52.3378 57.6839 51.7251 58.785 50.67C59.6963 49.7963 60.2588 48.7125 60.4763 47.58C61.4415 47.7493 62.433 47.6895 63.3709 47.4056C64.3089 47.1216 65.167 46.6213 65.8763 45.945C66.4419 45.4089 66.8925 44.7632 67.2003 44.0472C67.5082 43.3312 67.667 42.56 67.667 41.7807C67.667 41.0013 67.5082 40.2301 67.2003 39.5141C66.8925 38.7982 66.4419 38.1524 65.8763 37.6163L63.1763 35.0175L63.7275 32.955C64.8426 28.7384 64.278 24.2537 62.1525 20.445C59.0175 14.7975 52.935 11.31 46.3575 11.31H41.745C41.5464 11.3002 41.3476 11.2952 41.1488 11.295H38.415ZM47.6138 25.23L56.6325 33.9188L56.6438 33.9263L63.1725 40.2188C63.3846 40.4199 63.5535 40.6621 63.6689 40.9306C63.7843 41.1992 63.8439 41.4884 63.8439 41.7807C63.8439 42.073 63.7843 42.3622 63.6689 42.6307C63.5535 42.8992 63.3846 43.1414 63.1725 43.3425C62.7344 43.7574 62.154 43.9886 61.5506 43.9886C60.9473 43.9886 60.3668 43.7574 59.9288 43.3425L54.975 38.5725C54.6119 38.2242 54.1282 38.0297 53.625 38.0297C53.1218 38.0297 52.6381 38.2242 52.275 38.5725L52.2225 38.6175C52.0457 38.785 51.9049 38.9868 51.8087 39.2105C51.7124 39.4343 51.6628 39.6753 51.6628 39.9188C51.6628 40.1623 51.7124 40.4033 51.8087 40.6271C51.9049 40.8508 52.0457 41.0525 52.2225 41.22L56.085 44.94C56.985 45.8025 56.985 47.205 56.085 48.0713C55.6867 48.4487 55.1695 48.6757 54.6221 48.7134C54.0746 48.751 53.5312 48.5969 53.085 48.2775C52.7126 48.0085 52.2577 47.8784 51.7994 47.9099C51.3411 47.9415 50.9083 48.1326 50.5763 48.45C50.2517 48.7603 50.0558 49.1813 50.0273 49.6294C49.9988 50.0775 50.1399 50.5199 50.4225 50.8688C50.7591 51.2904 50.9251 51.8231 50.8876 52.3614C50.8501 52.8996 50.6119 53.4042 50.22 53.775C49.8161 54.1581 49.2898 54.3862 48.7341 54.4192C48.1784 54.4521 47.6289 54.2877 47.1825 53.955C46.812 53.6771 46.3552 53.539 45.8928 53.5651C45.4303 53.5911 44.9919 53.7797 44.655 54.0975C44.3263 54.4074 44.1269 54.8301 44.097 55.2809C44.0671 55.7316 44.2088 56.177 44.4938 56.5275C44.8383 56.9548 45.0092 57.4963 44.9723 58.0439C44.9355 58.5916 44.6936 59.1052 44.295 59.4825C43.8511 59.9038 43.2626 60.1386 42.6506 60.1386C42.0387 60.1386 41.4501 59.9038 41.0063 59.4825L39.3825 57.9188L39.975 57.3488C40.5407 56.8127 40.9912 56.1669 41.2991 55.451C41.607 54.735 41.7657 53.9638 41.7657 53.1844C41.7657 52.4051 41.607 51.6339 41.2991 50.9179C40.9912 50.2019 40.5407 49.5562 39.975 49.02C38.8543 47.9459 37.3719 47.3305 35.82 47.295C35.7745 45.7766 35.1317 44.3374 34.0313 43.29C32.909 42.2164 31.4252 41.6023 29.8725 41.5688C29.827 40.0503 29.1842 38.6111 28.0838 37.5638C27.3633 36.8781 26.49 36.3739 25.5359 36.0928C24.5819 35.8117 23.5746 35.7619 22.5975 35.9475C22.3503 34.8191 21.7719 33.7902 20.9363 32.9925C20.2957 32.3813 19.5324 31.9133 18.697 31.6198C17.8617 31.3262 16.9734 31.2138 16.0913 31.29C15.7958 29.0926 16.0259 26.8564 16.7625 24.7652C17.4991 22.6739 18.7214 20.7872 20.3288 19.26C21.953 17.7083 23.9005 16.535 26.0315 15.8245C28.1626 15.1139 30.4245 14.8836 32.655 15.15L27.1988 19.1625C26.5006 19.6698 25.9126 20.3133 25.4701 21.0542C25.0276 21.795 24.7398 22.6179 24.6241 23.473C24.5085 24.3282 24.5673 25.1979 24.7971 26.0297C25.027 26.8615 25.423 27.6381 25.9613 28.3125C27.0499 29.6775 28.6229 30.5703 30.353 30.8049C32.0831 31.0396 33.8371 30.5982 35.25 29.5725L41.16 25.2338L47.6138 25.23ZM29.4188 22.1813L39.1388 15.045H41.1488C41.3326 15.0441 41.5165 15.0491 41.7 15.06H46.3575C51.6225 15.06 56.4263 17.8538 58.875 22.2675C60.5325 25.2525 60.9675 28.7213 60.1013 31.995L60.09 32.0325L49.74 22.0313C49.3892 21.6794 48.9131 21.4811 48.4163 21.48H40.5413C40.1432 21.4808 39.7558 21.6082 39.435 21.8438L33.03 26.5463C32.4009 26.9968 31.6234 27.1899 30.8566 27.086C30.0898 26.9821 29.3916 26.5892 28.905 25.9875C28.6782 25.7082 28.511 25.3854 28.4137 25.039C28.3164 24.6926 28.291 24.3299 28.3392 23.9734C28.3873 23.6168 28.5079 23.2739 28.6936 22.9657C28.8792 22.6575 29.126 22.3905 29.4188 22.1813ZM31.0763 54.4688L31.1138 54.4313L34.0313 51.6188L34.065 51.5888C34.5055 51.1882 35.0813 50.9691 35.6766 50.9754C36.272 50.9816 36.843 51.2128 37.275 51.6225C37.4871 51.8237 37.656 52.0659 37.7714 52.3344C37.8868 52.6029 37.9464 52.8921 37.9464 53.1844C37.9464 53.4767 37.8868 53.7659 37.7714 54.0344C37.656 54.303 37.4871 54.5452 37.275 54.7463L34.3538 57.5588C33.9157 57.9737 33.3352 58.2049 32.7319 58.2049C32.1285 58.2049 31.5481 57.9737 31.11 57.5588C30.9007 57.3607 30.7333 57.1225 30.6178 56.8585C30.5023 56.5945 30.4409 56.3099 30.4374 56.0217C30.4339 55.7335 30.4883 55.4476 30.5974 55.1808C30.7065 54.9141 30.8718 54.6719 31.0763 54.4688ZM31.3613 48.9863L31.3238 49.02L28.4063 51.8325L28.3688 51.8663C27.928 52.2653 27.3528 52.4831 26.7583 52.4761C26.1638 52.4692 25.5938 52.238 25.1625 51.8288C24.9528 51.6298 24.7853 51.3906 24.6701 51.1255C24.5548 50.8603 24.4942 50.5747 24.4917 50.2856C24.4893 49.9965 24.5451 49.7099 24.6558 49.4429C24.7666 49.1758 24.9299 48.9338 25.1363 48.7313L25.1625 48.705L28.08 45.8925L28.1063 45.8663C28.5463 45.4626 29.123 45.2408 29.7202 45.2456C30.3173 45.2505 30.8904 45.4817 31.3238 45.8925C31.5336 46.0907 31.7015 46.3291 31.8174 46.5935C31.9333 46.8579 31.9948 47.1428 31.9983 47.4315C32.0018 47.7201 31.9472 48.0065 31.8377 48.2736C31.7283 48.5407 31.5663 48.7831 31.3613 48.9863ZM25.38 43.29L22.4588 46.1025L22.4325 46.1288C21.9925 46.5325 21.4157 46.7543 20.8186 46.7495C20.2214 46.7446 19.6484 46.5134 19.215 46.1025C19.0029 45.9014 18.834 45.6592 18.7186 45.3907C18.6032 45.1222 18.5437 44.833 18.5437 44.5407C18.5437 44.2484 18.6032 43.9592 18.7186 43.6906C18.834 43.4221 19.0029 43.1799 19.215 42.9788L22.1325 40.1663C22.5708 39.7503 23.152 39.5184 23.7563 39.5184C24.3605 39.5184 24.9417 39.7503 25.38 40.1663C25.5903 40.3653 25.7583 40.6048 25.8739 40.8703C25.9894 41.1357 26.0503 41.4218 26.0527 41.7113C26.0552 42.0009 25.9992 42.2879 25.8881 42.5553C25.777 42.8227 25.6131 43.065 25.4063 43.2675L25.38 43.29ZM18.2325 38.7188L15.315 41.5313C14.8772 41.9481 14.2958 42.1806 13.6913 42.1806C13.0867 42.1806 12.5054 41.9481 12.0675 41.5313C11.8548 41.3301 11.6854 41.0877 11.5697 40.8188C11.4539 40.5499 11.3942 40.2603 11.3942 39.9675C11.3942 39.6748 11.4539 39.3851 11.5697 39.1163C11.6854 38.8474 11.8548 38.605 12.0675 38.4038L14.9888 35.5913C15.4268 35.1764 16.0073 34.9452 16.6106 34.9452C17.214 34.9452 17.7944 35.1764 18.2325 35.5913C18.4452 35.7925 18.6146 36.0349 18.7303 36.3038C18.8461 36.5726 18.9058 36.8623 18.9058 37.155C18.9058 37.4478 18.8461 37.7374 18.7303 38.0063C18.6146 38.2752 18.4452 38.5176 18.2325 38.7188Z" fill="#699BF7"/>
</svg>
