<svg width="63" height="57" viewBox="0 0 63 57" fill="none" xmlns="http://www.w3.org/2000/svg">
<path d="M52.5 37.125C53.5937 34.4688 54.1875 31.625 54.1875 28.5C54.1875 26.25 53.8437 24.0938 53.25 22.0938C51.2187 22.5625 49.0938 22.8125 46.875 22.8125C42.3312 22.8174 37.8527 21.7298 33.8173 19.6414C29.7818 17.5529 26.3076 14.5249 23.6875 10.8125C20.8847 17.5943 15.5973 23.0494 8.90625 26.0625C8.78125 26.8438 8.78125 27.6875 8.78125 28.5C8.78125 31.4835 9.36889 34.4378 10.5106 37.1941C11.6523 39.9505 13.3258 42.455 15.4354 44.5646C19.696 48.8252 25.4746 51.2188 31.5 51.2188C34.7812 51.2188 37.9375 50.5 40.7812 49.2188C42.5625 52.625 43.375 54.3125 43.3125 54.3125C38.1875 56.0313 34.2188 56.875 31.5 56.875C23.9375 56.875 16.7188 53.9063 11.4063 48.5625C8.17499 45.3412 5.77303 41.3844 4.40625 37.0313H0.25V22.8125H3.65625C4.68825 17.7892 7.06091 13.1388 10.5225 9.35502C13.984 5.57121 18.4053 2.79507 23.3173 1.32117C28.2292 -0.152736 33.4486 -0.269416 38.4214 0.983505C43.3943 2.23643 47.9353 4.81221 51.5625 8.43755C55.5007 12.3602 58.1869 17.3629 59.2812 22.8125H62.75V37.0313H62.5625L51.4375 47.25L34.875 45.375V40.1563H49.9688L52.5 37.125ZM22.9688 27.7813C23.9063 27.7813 24.8125 28.1563 25.4688 28.8438C26.1283 29.5087 26.4983 30.4073 26.4983 31.3438C26.4983 32.2803 26.1283 33.1789 25.4688 33.8438C24.8125 34.5 23.9063 34.875 22.9688 34.875C21 34.875 19.4062 33.3125 19.4062 31.3438C19.4062 29.375 21 27.7813 22.9688 27.7813ZM40 27.7813C41.9688 27.7813 43.5312 29.375 43.5312 31.3438C43.5312 33.3125 41.9688 34.875 40 34.875C38.0312 34.875 36.4375 33.3125 36.4375 31.3438C36.4375 30.399 36.8128 29.4928 37.4809 28.8247C38.149 28.1566 39.0552 27.7813 40 27.7813Z" fill="#699BF7"/>
</svg>
