<svg width="60" height="60" viewBox="0 0 60 60" fill="none" xmlns="http://www.w3.org/2000/svg">
<path d="M43.5938 3.63281H16.4062C14.3379 3.63281 12.6562 5.31445 12.6562 7.38281V52.3828C12.6562 54.4512 14.3379 56.1328 16.4062 56.1328H43.5938C45.6621 56.1328 47.3438 54.4512 47.3438 52.3828V7.38281C47.3438 5.31445 45.6621 3.63281 43.5938 3.63281ZM43.125 51.9141H16.875V7.85156H43.125V51.9141ZM27.6562 45.9375C27.6562 46.5591 27.9032 47.1552 28.3427 47.5948C28.7823 48.0343 29.3784 48.2812 30 48.2812C30.6216 48.2812 31.2177 48.0343 31.6573 47.5948C32.0968 47.1552 32.3438 46.5591 32.3438 45.9375C32.3438 45.3159 32.0968 44.7198 31.6573 44.2802C31.2177 43.8407 30.6216 43.5938 30 43.5938C29.3784 43.5938 28.7823 43.8407 28.3427 44.2802C27.9032 44.7198 27.6562 45.3159 27.6562 45.9375Z" fill="#6F95FE"/>
</svg>
