<svg width="60" height="60" viewBox="0 0 60 60" fill="none" xmlns="http://www.w3.org/2000/svg">
<g clip-path="url(#clip0_491_71)">
<path d="M14.9663 55.9625C-4.98846 44.4582 -4.98846 15.5416 14.9663 4.03743C34.9212 -7.46675 60.0002 6.99161 60.0002 30C60.0002 53.0083 34.9213 67.4667 14.9663 55.9625ZM17.4612 28.8671C12.7346 31.1718 12.2362 35.3757 12.4221 37.1484C13.5158 47.5781 24.844 47.9883 33.9846 42.1289C37.5515 46.4619 42.6187 46.5867 48.1036 45.0885C48.1036 45.0885 48.1636 39.1012 48.1636 38.7922C48.1636 38.4833 47.7834 38.5547 47.7834 38.5547C45.718 39.7265 42.5393 39.4043 42.7297 36.0498C42.4575 30.3067 43.1407 20.8502 42.1942 18.4533C41.0158 15.4687 38.5706 12.9562 32.5783 12.0703C24.101 11.131 19.1271 13.7517 16.3726 16.0782C12.2254 19.5812 14.3809 24.7809 17.1749 25.2506C23.379 26.2936 23.2754 22.0782 24.823 20.1163C26.6537 17.7432 30.5047 17.7764 32.0165 19.7418C32.8188 20.7848 32.6315 23.5926 32.5514 25.4913C25.9404 25.9397 20.5555 27.3583 17.4612 28.8671ZM32.7118 36.6693C28.9946 38.6215 24.9567 40.2527 23.4324 36.7763C22.5123 33.5379 26.1582 31.5851 32.5514 30.9733L32.7118 36.6693Z" fill="#6F95FE"/>
</g>
<defs>
<clipPath id="clip0_491_71">
<rect width="60" height="60" fill="white"/>
</clipPath>
</defs>
</svg>
